<?xml version='1.0' encoding='UTF-8'?>
<svg width="49mm" height="49mm" version="1.1" viewBox="0 0 49 49" fill_color="black" back_color="white" xmlns="http://www.w3.org/2000/svg"><path d="M2,2H3V3H2zM3,2H4V3H3zM4,2H5V3H4zM5,2H6V3H5zM6,2H7V3H6zM7,2H8V3H7zM8,2H9V3H8zM10,2H11V3H10zM11,2H12V3H11zM12,2H13V3H12zM13,2H14V3H13zM14,2H15V3H14zM16,2H17V3H16zM17,2H18V3H17zM19,2H20V3H19zM21,2H22V3H21zM22,2H23V3H22zM24,2H25V3H24zM26,2H27V3H26zM29,2H30V3H29zM32,2H33V3H32zM34,2H35V3H34zM38,2H39V3H38zM40,2H41V3H40zM41,2H42V3H41zM42,2H43V3H42zM43,2H44V3H43zM44,2H45V3H44zM45,2H46V3H45zM46,2H47V3H46zM2,3H3V4H2zM8,3H9V4H8zM11,3H12V4H11zM12,3H13V4H12zM14,3H15V4H14zM16,3H17V4H16zM19,3H20V4H19zM23,3H24V4H23zM24,3H25V4H24zM25,3H26V4H25zM29,3H30V4H29zM30,3H31V4H30zM35,3H36V4H35zM37,3H38V4H37zM40,3H41V4H40zM46,3H47V4H46zM2,4H3V5H2zM4,4H5V5H4zM5,4H6V5H5zM6,4H7V5H6zM8,4H9V5H8zM10,4H11V5H10zM12,4H13V5H12zM18,4H19V5H18zM19,4H20V5H19zM23,4H24V5H23zM25,4H26V5H25zM26,4H27V5H26zM28,4H29V5H28zM29,4H30V5H29zM31,4H32V5H31zM34,4H35V5H34zM35,4H36V5H35zM37,4H38V5H37zM40,4H41V5H40zM42,4H43V5H42zM43,4H44V5H43zM44,4H45V5H44zM46,4H47V5H46zM2,5H3V6H2zM4,5H5V6H4zM5,5H6V6H5zM6,5H7V6H6zM8,5H9V6H8zM11,5H12V6H11zM12,5H13V6H12zM13,5H14V6H13zM14,5H15V6H14zM17,5H18V6H17zM19,5H20V6H19zM21,5H22V6H21zM23,5H24V6H23zM27,5H28V6H27zM31,5H32V6H31zM34,5H35V6H34zM37,5H38V6H37zM38,5H39V6H38zM40,5H41V6H40zM42,5H43V6H42zM43,5H44V6H43zM44,5H45V6H44zM46,5H47V6H46zM2,6H3V7H2zM4,6H5V7H4zM5,6H6V7H5zM6,6H7V7H6zM8,6H9V7H8zM10,6H11V7H10zM18,6H19V7H18zM19,6H20V7H19zM21,6H22V7H21zM22,6H23V7H22zM23,6H24V7H23zM24,6H25V7H24zM25,6H26V7H25zM26,6H27V7H26zM28,6H29V7H28zM29,6H30V7H29zM32,6H33V7H32zM34,6H35V7H34zM36,6H37V7H36zM37,6H38V7H37zM38,6H39V7H38zM40,6H41V7H40zM42,6H43V7H42zM43,6H44V7H43zM44,6H45V7H44zM46,6H47V7H46zM2,7H3V8H2zM8,7H9V8H8zM12,7H13V8H12zM13,7H14V8H13zM14,7H15V8H14zM18,7H19V8H18zM19,7H20V8H19zM21,7H22V8H21zM22,7H23V8H22zM26,7H27V8H26zM28,7H29V8H28zM29,7H30V8H29zM40,7H41V8H40zM46,7H47V8H46zM2,8H3V9H2zM3,8H4V9H3zM4,8H5V9H4zM5,8H6V9H5zM6,8H7V9H6zM7,8H8V9H7zM8,8H9V9H8zM10,8H11V9H10zM12,8H13V9H12zM14,8H15V9H14zM16,8H17V9H16zM18,8H19V9H18zM20,8H21V9H20zM22,8H23V9H22zM24,8H25V9H24zM26,8H27V9H26zM28,8H29V9H28zM30,8H31V9H30zM32,8H33V9H32zM34,8H35V9H34zM36,8H37V9H36zM38,8H39V9H38zM40,8H41V9H40zM41,8H42V9H41zM42,8H43V9H42zM43,8H44V9H43zM44,8H45V9H44zM45,8H46V9H45zM46,8H47V9H46zM10,9H11V10H10zM11,9H12V10H11zM12,9H13V10H12zM13,9H14V10H13zM14,9H15V10H14zM16,9H17V10H16zM18,9H19V10H18zM20,9H21V10H20zM21,9H22V10H21zM22,9H23V10H22zM26,9H27V10H26zM27,9H28V10H27zM28,9H29V10H28zM29,9H30V10H29zM33,9H34V10H33zM34,9H35V10H34zM35,9H36V10H35zM36,9H37V10H36zM37,9H38V10H37zM7,10H8V11H7zM8,10H9V11H8zM11,10H12V11H11zM12,10H13V11H12zM13,10H14V11H13zM14,10H15V11H14zM15,10H16V11H15zM17,10H18V11H17zM20,10H21V11H20zM22,10H23V11H22zM23,10H24V11H23zM24,10H25V11H24zM25,10H26V11H25zM26,10H27V11H26zM27,10H28V11H27zM28,10H29V11H28zM29,10H30V11H29zM31,10H32V11H31zM32,10H33V11H32zM33,10H34V11H33zM36,10H37V11H36zM40,10H41V11H40zM42,10H43V11H42zM44,10H45V11H44zM46,10H47V11H46zM3,11H4V12H3zM4,11H5V12H4zM6,11H7V12H6zM7,11H8V12H7zM10,11H11V12H10zM11,11H12V12H11zM12,11H13V12H12zM14,11H15V12H14zM15,11H16V12H15zM20,11H21V12H20zM21,11H22V12H21zM24,11H25V12H24zM26,11H27V12H26zM29,11H30V12H29zM31,11H32V12H31zM32,11H33V12H32zM33,11H34V12H33zM36,11H37V12H36zM37,11H38V12H37zM38,11H39V12H38zM39,11H40V12H39zM40,11H41V12H40zM41,11H42V12H41zM44,11H45V12H44zM4,12H5V13H4zM5,12H6V13H5zM8,12H9V13H8zM10,12H11V13H10zM11,12H12V13H11zM14,12H15V13H14zM18,12H19V13H18zM21,12H22V13H21zM24,12H25V13H24zM27,12H28V13H27zM29,12H30V13H29zM30,12H31V13H30zM33,12H34V13H33zM34,12H35V13H34zM35,12H36V13H35zM36,12H37V13H36zM38,12H39V13H38zM39,12H40V13H39zM40,12H41V13H40zM42,12H43V13H42zM2,13H3V14H2zM3,13H4V14H3zM7,13H8V14H7zM10,13H11V14H10zM14,13H15V14H14zM17,13H18V14H17zM18,13H19V14H18zM20,13H21V14H20zM21,13H22V14H21zM22,13H23V14H22zM23,13H24V14H23zM26,13H27V14H26zM29,13H30V14H29zM32,13H33V14H32zM34,13H35V14H34zM35,13H36V14H35zM38,13H39V14H38zM41,13H42V14H41zM42,13H43V14H42zM43,13H44V14H43zM44,13H45V14H44zM46,13H47V14H46zM2,14H3V15H2zM4,14H5V15H4zM5,14H6V15H5zM8,14H9V15H8zM9,14H10V15H9zM10,14H11V15H10zM12,14H13V15H12zM14,14H15V15H14zM16,14H17V15H16zM18,14H19V15H18zM21,14H22V15H21zM23,14H24V15H23zM24,14H25V15H24zM25,14H26V15H25zM26,14H27V15H26zM27,14H28V15H27zM31,14H32V15H31zM32,14H33V15H32zM34,14H35V15H34zM36,14H37V15H36zM37,14H38V15H37zM39,14H40V15H39zM40,14H41V15H40zM42,14H43V15H42zM43,14H44V15H43zM4,15H5V16H4zM6,15H7V16H6zM9,15H10V16H9zM10,15H11V16H10zM11,15H12V16H11zM15,15H16V16H15zM16,15H17V16H16zM18,15H19V16H18zM23,15H24V16H23zM24,15H25V16H24zM26,15H27V16H26zM27,15H28V16H27zM29,15H30V16H29zM31,15H32V16H31zM32,15H33V16H32zM33,15H34V16H33zM34,15H35V16H34zM35,15H36V16H35zM37,15H38V16H37zM38,15H39V16H38zM39,15H40V16H39zM41,15H42V16H41zM42,15H43V16H42zM46,15H47V16H46zM8,16H9V17H8zM10,16H11V17H10zM11,16H12V17H11zM12,16H13V17H12zM18,16H19V17H18zM21,16H22V17H21zM22,16H23V17H22zM23,16H24V17H23zM27,16H28V17H27zM28,16H29V17H28zM30,16H31V17H30zM35,16H36V17H35zM36,16H37V17H36zM38,16H39V17H38zM39,16H40V17H39zM40,16H41V17H40zM42,16H43V17H42zM44,16H45V17H44zM45,16H46V17H45zM3,17H4V18H3zM4,17H5V18H4zM6,17H7V18H6zM7,17H8V18H7zM9,17H10V18H9zM10,17H11V18H10zM11,17H12V18H11zM12,17H13V18H12zM16,17H17V18H16zM17,17H18V18H17zM19,17H20V18H19zM20,17H21V18H20zM25,17H26V18H25zM26,17H27V18H26zM27,17H28V18H27zM28,17H29V18H28zM29,17H30V18H29zM30,17H31V18H30zM31,17H32V18H31zM37,17H38V18H37zM43,17H44V18H43zM44,17H45V18H44zM2,18H3V19H2zM5,18H6V19H5zM8,18H9V19H8zM10,18H11V19H10zM11,18H12V19H11zM13,18H14V19H13zM14,18H15V19H14zM17,18H18V19H17zM18,18H19V19H18zM19,18H20V19H19zM21,18H22V19H21zM22,18H23V19H22zM23,18H24V19H23zM24,18H25V19H24zM28,18H29V19H28zM30,18H31V19H30zM31,18H32V19H31zM33,18H34V19H33zM37,18H38V19H37zM39,18H40V19H39zM43,18H44V19H43zM2,19H3V20H2zM3,19H4V20H3zM5,19H6V20H5zM6,19H7V20H6zM12,19H13V20H12zM16,19H17V20H16zM19,19H20V20H19zM20,19H21V20H20zM23,19H24V20H23zM25,19H26V20H25zM27,19H28V20H27zM32,19H33V20H32zM33,19H34V20H33zM35,19H36V20H35zM37,19H38V20H37zM38,19H39V20H38zM39,19H40V20H39zM41,19H42V20H41zM43,19H44V20H43zM44,19H45V20H44zM45,19H46V20H45zM46,19H47V20H46zM4,20H5V21H4zM6,20H7V21H6zM8,20H9V21H8zM11,20H12V21H11zM12,20H13V21H12zM16,20H17V21H16zM17,20H18V21H17zM19,20H20V21H19zM20,20H21V21H20zM24,20H25V21H24zM26,20H27V21H26zM27,20H28V21H27zM28,20H29V21H28zM31,20H32V21H31zM32,20H33V21H32zM33,20H34V21H33zM37,20H38V21H37zM38,20H39V21H38zM41,20H42V21H41zM42,20H43V21H42zM43,20H44V21H43zM44,20H45V21H44zM46,20H47V21H46zM6,21H7V22H6zM9,21H10V22H9zM13,21H14V22H13zM14,21H15V22H14zM15,21H16V22H15zM19,21H20V22H19zM20,21H21V22H20zM24,21H25V22H24zM28,21H29V22H28zM31,21H32V22H31zM34,21H35V22H34zM35,21H36V22H35zM36,21H37V22H36zM42,21H43V22H42zM44,21H45V22H44zM45,21H46V22H45zM46,21H47V22H46zM3,22H4V23H3zM4,22H5V23H4zM5,22H6V23H5zM6,22H7V23H6zM7,22H8V23H7zM8,22H9V23H8zM9,22H10V23H9zM10,22H11V23H10zM14,22H15V23H14zM15,22H16V23H15zM18,22H19V23H18zM22,22H23V23H22zM23,22H24V23H23zM24,22H25V23H24zM25,22H26V23H25zM26,22H27V23H26zM28,22H29V23H28zM29,22H30V23H29zM33,22H34V23H33zM36,22H37V23H36zM38,22H39V23H38zM39,22H40V23H39zM40,22H41V23H40zM41,22H42V23H41zM42,22H43V23H42zM45,22H46V23H45zM46,22H47V23H46zM2,23H3V24H2zM3,23H4V24H3zM4,23H5V24H4zM5,23H6V24H5zM6,23H7V24H6zM10,23H11V24H10zM13,23H14V24H13zM14,23H15V24H14zM15,23H16V24H15zM17,23H18V24H17zM18,23H19V24H18zM19,23H20V24H19zM20,23H21V24H20zM21,23H22V24H21zM22,23H23V24H22zM26,23H27V24H26zM28,23H29V24H28zM29,23H30V24H29zM31,23H32V24H31zM33,23H34V24H33zM34,23H35V24H34zM35,23H36V24H35zM36,23H37V24H36zM37,23H38V24H37zM38,23H39V24H38zM42,23H43V24H42zM43,23H44V24H43zM44,23H45V24H44zM2,24H3V25H2zM3,24H4V25H3zM4,24H5V25H4zM6,24H7V25H6zM8,24H9V25H8zM10,24H11V25H10zM11,24H12V25H11zM17,24H18V25H17zM21,24H22V25H21zM22,24H23V25H22zM24,24H25V25H24zM26,24H27V25H26zM27,24H28V25H27zM32,24H33V25H32zM33,24H34V25H33zM34,24H35V25H34zM36,24H37V25H36zM38,24H39V25H38zM40,24H41V25H40zM42,24H43V25H42zM43,24H44V25H43zM44,24H45V25H44zM45,24H46V25H45zM2,25H3V26H2zM3,25H4V26H3zM4,25H5V26H4zM6,25H7V26H6zM10,25H11V26H10zM11,25H12V26H11zM13,25H14V26H13zM16,25H17V26H16zM17,25H18V26H17zM19,25H20V26H19zM20,25H21V26H20zM22,25H23V26H22zM26,25H27V26H26zM34,25H35V26H34zM35,25H36V26H35zM36,25H37V26H36zM38,25H39V26H38zM42,25H43V26H42zM43,25H44V26H43zM44,25H45V26H44zM45,25H46V26H45zM46,25H47V26H46zM5,26H6V27H5zM6,26H7V27H6zM7,26H8V27H7zM8,26H9V27H8zM9,26H10V27H9zM10,26H11V27H10zM11,26H12V27H11zM12,26H13V27H12zM14,26H15V27H14zM15,26H16V27H15zM16,26H17V27H16zM19,26H20V27H19zM20,26H21V27H20zM21,26H22V27H21zM22,26H23V27H22zM23,26H24V27H23zM24,26H25V27H24zM25,26H26V27H25zM26,26H27V27H26zM27,26H28V27H27zM29,26H30V27H29zM30,26H31V27H30zM31,26H32V27H31zM34,26H35V27H34zM37,26H38V27H37zM38,26H39V27H38zM39,26H40V27H39zM40,26H41V27H40zM41,26H42V27H41zM42,26H43V27H42zM43,26H44V27H43zM2,27H3V28H2zM3,27H4V28H3zM4,27H5V28H4zM16,27H17V28H16zM17,27H18V28H17zM20,27H21V28H20zM21,27H22V28H21zM23,27H24V28H23zM25,27H26V28H25zM26,27H27V28H26zM28,27H29V28H28zM29,27H30V28H29zM30,27H31V28H30zM31,27H32V28H31zM32,27H33V28H32zM33,27H34V28H33zM35,27H36V28H35zM37,27H38V28H37zM38,27H39V28H38zM40,27H41V28H40zM41,27H42V28H41zM43,27H44V28H43zM45,27H46V28H45zM46,27H47V28H46zM4,28H5V29H4zM5,28H6V29H5zM6,28H7V29H6zM8,28H9V29H8zM9,28H10V29H9zM10,28H11V29H10zM11,28H12V29H11zM12,28H13V29H12zM13,28H14V29H13zM15,28H16V29H15zM18,28H19V29H18zM19,28H20V29H19zM20,28H21V29H20zM21,28H22V29H21zM23,28H24V29H23zM24,28H25V29H24zM25,28H26V29H25zM26,28H27V29H26zM27,28H28V29H27zM28,28H29V29H28zM29,28H30V29H29zM32,28H33V29H32zM33,28H34V29H33zM36,28H37V29H36zM37,28H38V29H37zM38,28H39V29H38zM39,28H40V29H39zM42,28H43V29H42zM43,28H44V29H43zM44,28H45V29H44zM45,28H46V29H45zM2,29H3V30H2zM4,29H5V30H4zM10,29H11V30H10zM13,29H14V30H13zM16,29H17V30H16zM17,29H18V30H17zM19,29H20V30H19zM22,29H23V30H22zM26,29H27V30H26zM27,29H28V30H27zM30,29H31V30H30zM31,29H32V30H31zM35,29H36V30H35zM37,29H38V30H37zM41,29H42V30H41zM42,29H43V30H42zM43,29H44V30H43zM44,29H45V30H44zM45,29H46V30H45zM46,29H47V30H46zM3,30H4V31H3zM4,30H5V31H4zM6,30H7V31H6zM7,30H8V31H7zM8,30H9V31H8zM13,30H14V31H13zM15,30H16V31H15zM16,30H17V31H16zM17,30H18V31H17zM18,30H19V31H18zM19,30H20V31H19zM20,30H21V31H20zM22,30H23V31H22zM23,30H24V31H23zM24,30H25V31H24zM26,30H27V31H26zM28,30H29V31H28zM30,30H31V31H30zM33,30H34V31H33zM36,30H37V31H36zM39,30H40V31H39zM42,30H43V31H42zM45,30H46V31H45zM2,31H3V32H2zM3,31H4V32H3zM6,31H7V32H6zM10,31H11V32H10zM12,31H13V32H12zM13,31H14V32H13zM18,31H19V32H18zM19,31H20V32H19zM20,31H21V32H20zM23,31H24V32H23zM24,31H25V32H24zM25,31H26V32H25zM26,31H27V32H26zM27,31H28V32H27zM29,31H30V32H29zM30,31H31V32H30zM31,31H32V32H31zM35,31H36V32H35zM38,31H39V32H38zM41,31H42V32H41zM44,31H45V32H44zM46,31H47V32H46zM2,32H3V33H2zM3,32H4V33H3zM4,32H5V33H4zM5,32H6V33H5zM6,32H7V33H6zM8,32H9V33H8zM10,32H11V33H10zM11,32H12V33H11zM12,32H13V33H12zM13,32H14V33H13zM14,32H15V33H14zM16,32H17V33H16zM17,32H18V33H17zM19,32H20V33H19zM20,32H21V33H20zM22,32H23V33H22zM23,32H24V33H23zM24,32H25V33H24zM25,32H26V33H25zM26,32H27V33H26zM28,32H29V33H28zM29,32H30V33H29zM31,32H32V33H31zM32,32H33V33H32zM34,32H35V33H34zM35,32H36V33H35zM39,32H40V33H39zM40,32H41V33H40zM41,32H42V33H41zM42,32H43V33H42zM44,32H45V33H44zM46,32H47V33H46zM2,33H3V34H2zM3,33H4V34H3zM4,33H5V34H4zM7,33H8V34H7zM9,33H10V34H9zM10,33H11V34H10zM11,33H12V34H11zM14,33H15V34H14zM15,33H16V34H15zM16,33H17V34H16zM19,33H20V34H19zM23,33H24V34H23zM24,33H25V34H24zM29,33H30V34H29zM34,33H35V34H34zM40,33H41V34H40zM41,33H42V34H41zM43,33H44V34H43zM44,33H45V34H44zM45,33H46V34H45zM46,33H47V34H46zM2,34H3V35H2zM3,34H4V35H3zM8,34H9V35H8zM9,34H10V35H9zM10,34H11V35H10zM13,34H14V35H13zM14,34H15V35H14zM15,34H16V35H15zM25,34H26V35H25zM26,34H27V35H26zM30,34H31V35H30zM31,34H32V35H31zM33,34H34V35H33zM35,34H36V35H35zM36,34H37V35H36zM41,34H42V35H41zM42,34H43V35H42zM43,34H44V35H43zM45,34H46V35H45zM46,34H47V35H46zM4,35H5V36H4zM5,35H6V36H5zM10,35H11V36H10zM12,35H13V36H12zM14,35H15V36H14zM16,35H17V36H16zM18,35H19V36H18zM19,35H20V36H19zM21,35H22V36H21zM22,35H23V36H22zM24,35H25V36H24zM26,35H27V36H26zM28,35H29V36H28zM29,35H30V36H29zM30,35H31V36H30zM31,35H32V36H31zM33,35H34V36H33zM34,35H35V36H34zM36,35H37V36H36zM37,35H38V36H37zM41,35H42V36H41zM42,35H43V36H42zM43,35H44V36H43zM44,35H45V36H44zM45,35H46V36H45zM6,36H7V37H6zM8,36H9V37H8zM9,36H10V37H9zM12,36H13V37H12zM13,36H14V37H13zM17,36H18V37H17zM18,36H19V37H18zM20,36H21V37H20zM22,36H23V37H22zM23,36H24V37H23zM26,36H27V37H26zM28,36H29V37H28zM31,36H32V37H31zM32,36H33V37H32zM35,36H36V37H35zM36,36H37V37H36zM37,36H38V37H37zM38,36H39V37H38zM39,36H40V37H39zM41,36H42V37H41zM44,36H45V37H44zM45,36H46V37H45zM3,37H4V38H3zM4,37H5V38H4zM5,37H6V38H5zM6,37H7V38H6zM10,37H11V38H10zM13,37H14V38H13zM14,37H15V38H14zM15,37H16V38H15zM17,37H18V38H17zM20,37H21V38H20zM21,37H22V38H21zM23,37H24V38H23zM24,37H25V38H24zM25,37H26V38H25zM28,37H29V38H28zM31,37H32V38H31zM34,37H35V38H34zM35,37H36V38H35zM37,37H38V38H37zM40,37H41V38H40zM41,37H42V38H41zM43,37H44V38H43zM44,37H45V38H44zM45,37H46V38H45zM46,37H47V38H46zM2,38H3V39H2zM5,38H6V39H5zM6,38H7V39H6zM8,38H9V39H8zM10,38H11V39H10zM11,38H12V39H11zM13,38H14V39H13zM14,38H15V39H14zM16,38H17V39H16zM18,38H19V39H18zM19,38H20V39H19zM22,38H23V39H22zM23,38H24V39H23zM24,38H25V39H24zM25,38H26V39H25zM26,38H27V39H26zM28,38H29V39H28zM29,38H30V39H29zM31,38H32V39H31zM34,38H35V39H34zM35,38H36V39H35zM36,38H37V39H36zM37,38H38V39H37zM38,38H39V39H38zM39,38H40V39H39zM40,38H41V39H40zM41,38H42V39H41zM42,38H43V39H42zM10,39H11V40H10zM20,39H21V40H20zM22,39H23V40H22zM26,39H27V40H26zM28,39H29V40H28zM29,39H30V40H29zM30,39H31V40H30zM31,39H32V40H31zM32,39H33V40H32zM34,39H35V40H34zM35,39H36V40H35zM37,39H38V40H37zM38,39H39V40H38zM42,39H43V40H42zM43,39H44V40H43zM46,39H47V40H46zM2,40H3V41H2zM3,40H4V41H3zM4,40H5V41H4zM5,40H6V41H5zM6,40H7V41H6zM7,40H8V41H7zM8,40H9V41H8zM13,40H14V41H13zM14,40H15V41H14zM17,40H18V41H17zM20,40H21V41H20zM22,40H23V41H22zM24,40H25V41H24zM26,40H27V41H26zM29,40H30V41H29zM32,40H33V41H32zM33,40H34V41H33zM34,40H35V41H34zM35,40H36V41H35zM36,40H37V41H36zM38,40H39V41H38zM40,40H41V41H40zM42,40H43V41H42zM45,40H46V41H45zM2,41H3V42H2zM8,41H9V42H8zM10,41H11V42H10zM11,41H12V42H11zM13,41H14V42H13zM14,41H15V42H14zM15,41H16V42H15zM18,41H19V42H18zM20,41H21V42H20zM21,41H22V42H21zM22,41H23V42H22zM26,41H27V42H26zM32,41H33V42H32zM36,41H37V42H36zM38,41H39V42H38zM42,41H43V42H42zM43,41H44V42H43zM44,41H45V42H44zM45,41H46V42H45zM2,42H3V43H2zM4,42H5V43H4zM5,42H6V43H5zM6,42H7V43H6zM8,42H9V43H8zM12,42H13V43H12zM13,42H14V43H13zM16,42H17V43H16zM17,42H18V43H17zM20,42H21V43H20zM22,42H23V43H22zM23,42H24V43H23zM24,42H25V43H24zM25,42H26V43H25zM26,42H27V43H26zM27,42H28V43H27zM29,42H30V43H29zM30,42H31V43H30zM31,42H32V43H31zM32,42H33V43H32zM33,42H34V43H33zM36,42H37V43H36zM37,42H38V43H37zM38,42H39V43H38zM39,42H40V43H39zM40,42H41V43H40zM41,42H42V43H41zM42,42H43V43H42zM2,43H3V44H2zM4,43H5V44H4zM5,43H6V44H5zM6,43H7V44H6zM8,43H9V44H8zM11,43H12V44H11zM16,43H17V44H16zM17,43H18V44H17zM22,43H23V44H22zM23,43H24V44H23zM24,43H25V44H24zM27,43H28V44H27zM29,43H30V44H29zM30,43H31V44H30zM31,43H32V44H31zM32,43H33V44H32zM34,43H35V44H34zM35,43H36V44H35zM42,43H43V44H42zM45,43H46V44H45zM46,43H47V44H46zM2,44H3V45H2zM4,44H5V45H4zM5,44H6V45H5zM6,44H7V45H6zM8,44H9V45H8zM11,44H12V45H11zM12,44H13V45H12zM14,44H15V45H14zM17,44H18V45H17zM20,44H21V45H20zM21,44H22V45H21zM22,44H23V45H22zM25,44H26V45H25zM28,44H29V45H28zM30,44H31V45H30zM31,44H32V45H31zM32,44H33V45H32zM33,44H34V45H33zM38,44H39V45H38zM42,44H43V45H42zM43,44H44V45H43zM44,44H45V45H44zM45,44H46V45H45zM46,44H47V45H46zM2,45H3V46H2zM8,45H9V46H8zM15,45H16V46H15zM17,45H18V46H17zM20,45H21V46H20zM23,45H24V46H23zM24,45H25V46H24zM29,45H30V46H29zM30,45H31V46H30zM31,45H32V46H31zM32,45H33V46H32zM34,45H35V46H34zM35,45H36V46H35zM38,45H39V46H38zM41,45H42V46H41zM42,45H43V46H42zM43,45H44V46H43zM44,45H45V46H44zM2,46H3V47H2zM3,46H4V47H3zM4,46H5V47H4zM5,46H6V47H5zM6,46H7V47H6zM7,46H8V47H7zM8,46H9V47H8zM11,46H12V47H11zM12,46H13V47H12zM13,46H14V47H13zM14,46H15V47H14zM15,46H16V47H15zM19,46H20V47H19zM21,46H22V47H21zM22,46H23V47H22zM23,46H24V47H23zM26,46H27V47H26zM29,46H30V47H29zM31,46H32V47H31zM32,46H33V47H32zM33,46H34V47H33zM36,46H37V47H36zM37,46H38V47H37zM38,46H39V47H38zM39,46H40V47H39zM40,46H41V47H40zM41,46H42V47H41zM45,46H46V47H45z" id="qr-path" fill="#000000" fill-opacity="1" fill-rule="nonzero" stroke="none"/></svg>