<?xml version='1.0' encoding='UTF-8'?>
<svg width="41mm" height="41mm" version="1.1" viewBox="0 0 41 41" fill_color="black" back_color="white" xmlns="http://www.w3.org/2000/svg"><path d="M2,2H3V3H2zM3,2H4V3H3zM4,2H5V3H4zM5,2H6V3H5zM6,2H7V3H6zM7,2H8V3H7zM8,2H9V3H8zM11,2H12V3H11zM12,2H13V3H12zM14,2H15V3H14zM15,2H16V3H15zM16,2H17V3H16zM17,2H18V3H17zM19,2H20V3H19zM20,2H21V3H20zM21,2H22V3H21zM23,2H24V3H23zM24,2H25V3H24zM26,2H27V3H26zM28,2H29V3H28zM29,2H30V3H29zM30,2H31V3H30zM32,2H33V3H32zM33,2H34V3H33zM34,2H35V3H34zM35,2H36V3H35zM36,2H37V3H36zM37,2H38V3H37zM38,2H39V3H38zM2,3H3V4H2zM8,3H9V4H8zM10,3H11V4H10zM11,3H12V4H11zM12,3H13V4H12zM18,3H19V4H18zM19,3H20V4H19zM20,3H21V4H20zM21,3H22V4H21zM22,3H23V4H22zM24,3H25V4H24zM26,3H27V4H26zM27,3H28V4H27zM28,3H29V4H28zM32,3H33V4H32zM38,3H39V4H38zM2,4H3V5H2zM4,4H5V5H4zM5,4H6V5H5zM6,4H7V5H6zM8,4H9V5H8zM11,4H12V5H11zM13,4H14V5H13zM14,4H15V5H14zM16,4H17V5H16zM18,4H19V5H18zM19,4H20V5H19zM20,4H21V5H20zM23,4H24V5H23zM24,4H25V5H24zM25,4H26V5H25zM28,4H29V5H28zM29,4H30V5H29zM32,4H33V5H32zM34,4H35V5H34zM35,4H36V5H35zM36,4H37V5H36zM38,4H39V5H38zM2,5H3V6H2zM4,5H5V6H4zM5,5H6V6H5zM6,5H7V6H6zM8,5H9V6H8zM12,5H13V6H12zM13,5H14V6H13zM14,5H15V6H14zM17,5H18V6H17zM19,5H20V6H19zM20,5H21V6H20zM23,5H24V6H23zM25,5H26V6H25zM26,5H27V6H26zM27,5H28V6H27zM28,5H29V6H28zM29,5H30V6H29zM30,5H31V6H30zM32,5H33V6H32zM34,5H35V6H34zM35,5H36V6H35zM36,5H37V6H36zM38,5H39V6H38zM2,6H3V7H2zM4,6H5V7H4zM5,6H6V7H5zM6,6H7V7H6zM8,6H9V7H8zM11,6H12V7H11zM12,6H13V7H12zM14,6H15V7H14zM15,6H16V7H15zM18,6H19V7H18zM19,6H20V7H19zM22,6H23V7H22zM23,6H24V7H23zM24,6H25V7H24zM26,6H27V7H26zM27,6H28V7H27zM28,6H29V7H28zM29,6H30V7H29zM32,6H33V7H32zM34,6H35V7H34zM35,6H36V7H35zM36,6H37V7H36zM38,6H39V7H38zM2,7H3V8H2zM8,7H9V8H8zM10,7H11V8H10zM13,7H14V8H13zM15,7H16V8H15zM19,7H20V8H19zM20,7H21V8H20zM21,7H22V8H21zM24,7H25V8H24zM26,7H27V8H26zM27,7H28V8H27zM28,7H29V8H28zM30,7H31V8H30zM32,7H33V8H32zM38,7H39V8H38zM2,8H3V9H2zM3,8H4V9H3zM4,8H5V9H4zM5,8H6V9H5zM6,8H7V9H6zM7,8H8V9H7zM8,8H9V9H8zM10,8H11V9H10zM12,8H13V9H12zM14,8H15V9H14zM16,8H17V9H16zM18,8H19V9H18zM20,8H21V9H20zM22,8H23V9H22zM24,8H25V9H24zM26,8H27V9H26zM28,8H29V9H28zM30,8H31V9H30zM32,8H33V9H32zM33,8H34V9H33zM34,8H35V9H34zM35,8H36V9H35zM36,8H37V9H36zM37,8H38V9H37zM38,8H39V9H38zM10,9H11V10H10zM11,9H12V10H11zM12,9H13V10H12zM15,9H16V10H15zM17,9H18V10H17zM18,9H19V10H18zM19,9H20V10H19zM20,9H21V10H20zM22,9H23V10H22zM24,9H25V10H24zM28,9H29V10H28zM6,10H7V11H6zM7,10H8V11H7zM8,10H9V11H8zM9,10H10V11H9zM11,10H12V11H11zM12,10H13V11H12zM13,10H14V11H13zM14,10H15V11H14zM16,10H17V11H16zM18,10H19V11H18zM21,10H22V11H21zM22,10H23V11H22zM23,10H24V11H23zM25,10H26V11H25zM26,10H27V11H26zM27,10H28V11H27zM28,10H29V11H28zM29,10H30V11H29zM32,10H33V11H32zM33,10H34V11H33zM37,10H38V11H37zM2,11H3V12H2zM6,11H7V12H6zM9,11H10V12H9zM10,11H11V12H10zM11,11H12V12H11zM12,11H13V12H12zM13,11H14V12H13zM14,11H15V12H14zM16,11H17V12H16zM18,11H19V12H18zM22,11H23V12H22zM30,11H31V12H30zM31,11H32V12H31zM32,11H33V12H32zM33,11H34V12H33zM34,11H35V12H34zM2,12H3V13H2zM4,12H5V13H4zM6,12H7V13H6zM8,12H9V13H8zM9,12H10V13H9zM11,12H12V13H11zM12,12H13V13H12zM13,12H14V13H13zM15,12H16V13H15zM17,12H18V13H17zM18,12H19V13H18zM27,12H28V13H27zM28,12H29V13H28zM30,12H31V13H30zM31,12H32V13H31zM33,12H34V13H33zM5,13H6V14H5zM6,13H7V14H6zM7,13H8V14H7zM12,13H13V14H12zM14,13H15V14H14zM16,13H17V14H16zM18,13H19V14H18zM20,13H21V14H20zM23,13H24V14H23zM25,13H26V14H25zM26,13H27V14H26zM28,13H29V14H28zM31,13H32V14H31zM35,13H36V14H35zM36,13H37V14H36zM37,13H38V14H37zM38,13H39V14H38zM5,14H6V15H5zM7,14H8V15H7zM8,14H9V15H8zM11,14H12V15H11zM14,14H15V15H14zM16,14H17V15H16zM19,14H20V15H19zM23,14H24V15H23zM24,14H25V15H24zM25,14H26V15H25zM26,14H27V15H26zM29,14H30V15H29zM31,14H32V15H31zM32,14H33V15H32zM36,14H37V15H36zM37,14H38V15H37zM3,15H4V16H3zM4,15H5V16H4zM5,15H6V16H5zM6,15H7V16H6zM9,15H10V16H9zM10,15H11V16H10zM11,15H12V16H11zM12,15H13V16H12zM13,15H14V16H13zM14,15H15V16H14zM16,15H17V16H16zM17,15H18V16H17zM19,15H20V16H19zM20,15H21V16H20zM21,15H22V16H21zM23,15H24V16H23zM24,15H25V16H24zM25,15H26V16H25zM26,15H27V16H26zM28,15H29V16H28zM29,15H30V16H29zM30,15H31V16H30zM31,15H32V16H31zM34,15H35V16H34zM36,15H37V16H36zM4,16H5V17H4zM7,16H8V17H7zM8,16H9V17H8zM9,16H10V17H9zM14,16H15V17H14zM15,16H16V17H15zM19,16H20V17H19zM21,16H22V17H21zM23,16H24V17H23zM24,16H25V17H24zM29,16H30V17H29zM32,16H33V17H32zM33,16H34V17H33zM34,16H35V17H34zM35,16H36V17H35zM36,16H37V17H36zM2,17H3V18H2zM4,17H5V18H4zM6,17H7V18H6zM7,17H8V18H7zM10,17H11V18H10zM11,17H12V18H11zM13,17H14V18H13zM14,17H15V18H14zM15,17H16V18H15zM16,17H17V18H16zM17,17H18V18H17zM21,17H22V18H21zM30,17H31V18H30zM31,17H32V18H31zM32,17H33V18H32zM33,17H34V18H33zM34,17H35V18H34zM36,17H37V18H36zM4,18H5V19H4zM6,18H7V19H6zM8,18H9V19H8zM9,18H10V19H9zM12,18H13V19H12zM13,18H14V19H13zM17,18H18V19H17zM18,18H19V19H18zM20,18H21V19H20zM22,18H23V19H22zM23,18H24V19H23zM25,18H26V19H25zM26,18H27V19H26zM30,18H31V19H30zM31,18H32V19H31zM32,18H33V19H32zM33,18H34V19H33zM35,18H36V19H35zM36,18H37V19H36zM38,18H39V19H38zM2,19H3V20H2zM3,19H4V20H3zM5,19H6V20H5zM6,19H7V20H6zM9,19H10V20H9zM10,19H11V20H10zM12,19H13V20H12zM15,19H16V20H15zM16,19H17V20H16zM18,19H19V20H18zM19,19H20V20H19zM21,19H22V20H21zM23,19H24V20H23zM26,19H27V20H26zM27,19H28V20H27zM29,19H30V20H29zM30,19H31V20H30zM33,19H34V20H33zM34,19H35V20H34zM2,20H3V21H2zM5,20H6V21H5zM8,20H9V21H8zM13,20H14V21H13zM14,20H15V21H14zM17,20H18V21H17zM18,20H19V21H18zM19,20H20V21H19zM21,20H22V21H21zM28,20H29V21H28zM29,20H30V21H29zM31,20H32V21H31zM5,21H6V22H5zM6,21H7V22H6zM13,21H14V22H13zM15,21H16V22H15zM19,21H20V22H19zM21,21H22V22H21zM22,21H23V22H22zM24,21H25V22H24zM25,21H26V22H25zM26,21H27V22H26zM28,21H29V22H28zM29,21H30V22H29zM30,21H31V22H30zM31,21H32V22H31zM33,21H34V22H33zM36,21H37V22H36zM38,21H39V22H38zM3,22H4V23H3zM4,22H5V23H4zM6,22H7V23H6zM7,22H8V23H7zM8,22H9V23H8zM11,22H12V23H11zM14,22H15V23H14zM15,22H16V23H15zM16,22H17V23H16zM17,22H18V23H17zM21,22H22V23H21zM22,22H23V23H22zM23,22H24V23H23zM24,22H25V23H24zM25,22H26V23H25zM26,22H27V23H26zM29,22H30V23H29zM31,22H32V23H31zM32,22H33V23H32zM36,22H37V23H36zM38,22H39V23H38zM2,23H3V24H2zM3,23H4V24H3zM4,23H5V24H4zM7,23H8V24H7zM9,23H10V24H9zM10,23H11V24H10zM11,23H12V24H11zM13,23H14V24H13zM14,23H15V24H14zM15,23H16V24H15zM17,23H18V24H17zM18,23H19V24H18zM19,23H20V24H19zM21,23H22V24H21zM22,23H23V24H22zM23,23H24V24H23zM24,23H25V24H24zM26,23H27V24H26zM28,23H29V24H28zM29,23H30V24H29zM34,23H35V24H34zM36,23H37V24H36zM37,23H38V24H37zM3,24H4V25H3zM7,24H8V25H7zM8,24H9V25H8zM14,24H15V25H14zM15,24H16V25H15zM16,24H17V25H16zM19,24H20V25H19zM22,24H23V25H22zM23,24H24V25H23zM25,24H26V25H25zM26,24H27V25H26zM27,24H28V25H27zM28,24H29V25H28zM29,24H30V25H29zM30,24H31V25H30zM32,24H33V25H32zM36,24H37V25H36zM3,25H4V26H3zM4,25H5V26H4zM6,25H7V26H6zM7,25H8V26H7zM9,25H10V26H9zM10,25H11V26H10zM12,25H13V26H12zM13,25H14V26H13zM15,25H16V26H15zM16,25H17V26H16zM18,25H19V26H18zM19,25H20V26H19zM22,25H23V26H22zM25,25H26V26H25zM26,25H27V26H26zM27,25H28V26H27zM30,25H31V26H30zM31,25H32V26H31zM32,25H33V26H32zM33,25H34V26H33zM36,25H37V26H36zM2,26H3V27H2zM3,26H4V27H3zM5,26H6V27H5zM7,26H8V27H7zM8,26H9V27H8zM9,26H10V27H9zM12,26H13V27H12zM13,26H14V27H13zM16,26H17V27H16zM18,26H19V27H18zM19,26H20V27H19zM22,26H23V27H22zM23,26H24V27H23zM24,26H25V27H24zM25,26H26V27H25zM26,26H27V27H26zM27,26H28V27H27zM29,26H30V27H29zM30,26H31V27H30zM31,26H32V27H31zM33,26H34V27H33zM34,26H35V27H34zM36,26H37V27H36zM37,26H38V27H37zM38,26H39V27H38zM2,27H3V28H2zM4,27H5V28H4zM5,27H6V28H5zM7,27H8V28H7zM9,27H10V28H9zM10,27H11V28H10zM11,27H12V28H11zM14,27H15V28H14zM16,27H17V28H16zM17,27H18V28H17zM20,27H21V28H20zM21,27H22V28H21zM22,27H23V28H22zM24,27H25V28H24zM28,27H29V28H28zM32,27H33V28H32zM35,27H36V28H35zM36,27H37V28H36zM5,28H6V29H5zM6,28H7V29H6zM7,28H8V29H7zM8,28H9V29H8zM10,28H11V29H10zM11,28H12V29H11zM12,28H13V29H12zM15,28H16V29H15zM19,28H20V29H19zM20,28H21V29H20zM21,28H22V29H21zM23,28H24V29H23zM24,28H25V29H24zM27,28H28V29H27zM29,28H30V29H29zM31,28H32V29H31zM34,28H35V29H34zM37,28H38V29H37zM4,29H5V30H4zM6,29H7V30H6zM10,29H11V30H10zM11,29H12V30H11zM15,29H16V30H15zM18,29H19V30H18zM19,29H20V30H19zM21,29H22V30H21zM22,29H23V30H22zM23,29H24V30H23zM24,29H25V30H24zM26,29H27V30H26zM29,29H30V30H29zM30,29H31V30H30zM32,29H33V30H32zM33,29H34V30H33zM34,29H35V30H34zM35,29H36V30H35zM36,29H37V30H36zM37,29H38V30H37zM38,29H39V30H38zM2,30H3V31H2zM3,30H4V31H3zM4,30H5V31H4zM7,30H8V31H7zM8,30H9V31H8zM9,30H10V31H9zM12,30H13V31H12zM17,30H18V31H17zM18,30H19V31H18zM19,30H20V31H19zM20,30H21V31H20zM22,30H23V31H22zM23,30H24V31H23zM25,30H26V31H25zM26,30H27V31H26zM30,30H31V31H30zM31,30H32V31H31zM32,30H33V31H32zM33,30H34V31H33zM34,30H35V31H34zM38,30H39V31H38zM10,31H11V32H10zM11,31H12V32H11zM12,31H13V32H12zM14,31H15V32H14zM21,31H22V32H21zM23,31H24V32H23zM25,31H26V32H25zM27,31H28V32H27zM28,31H29V32H28zM30,31H31V32H30zM34,31H35V32H34zM35,31H36V32H35zM2,32H3V33H2zM3,32H4V33H3zM4,32H5V33H4zM5,32H6V33H5zM6,32H7V33H6zM7,32H8V33H7zM8,32H9V33H8zM10,32H11V33H10zM12,32H13V33H12zM18,32H19V33H18zM19,32H20V33H19zM20,32H21V33H20zM22,32H23V33H22zM24,32H25V33H24zM25,32H26V33H25zM28,32H29V33H28zM30,32H31V33H30zM32,32H33V33H32zM34,32H35V33H34zM35,32H36V33H35zM36,32H37V33H36zM2,33H3V34H2zM8,33H9V34H8zM10,33H11V34H10zM11,33H12V34H11zM14,33H15V34H14zM17,33H18V34H17zM19,33H20V34H19zM22,33H23V34H22zM25,33H26V34H25zM26,33H27V34H26zM28,33H29V34H28zM30,33H31V34H30zM34,33H35V34H34zM36,33H37V34H36zM2,34H3V35H2zM4,34H5V35H4zM5,34H6V35H5zM6,34H7V35H6zM8,34H9V35H8zM10,34H11V35H10zM11,34H12V35H11zM13,34H14V35H13zM14,34H15V35H14zM15,34H16V35H15zM17,34H18V35H17zM21,34H22V35H21zM22,34H23V35H22zM23,34H24V35H23zM24,34H25V35H24zM30,34H31V35H30zM31,34H32V35H31zM32,34H33V35H32zM33,34H34V35H33zM34,34H35V35H34zM35,34H36V35H35zM36,34H37V35H36zM37,34H38V35H37zM2,35H3V36H2zM4,35H5V36H4zM5,35H6V36H5zM6,35H7V36H6zM8,35H9V36H8zM11,35H12V36H11zM12,35H13V36H12zM16,35H17V36H16zM17,35H18V36H17zM18,35H19V36H18zM21,35H22V36H21zM22,35H23V36H22zM26,35H27V36H26zM28,35H29V36H28zM29,35H30V36H29zM32,35H33V36H32zM33,35H34V36H33zM35,35H36V36H35zM36,35H37V36H36zM2,36H3V37H2zM4,36H5V37H4zM5,36H6V37H5zM6,36H7V37H6zM8,36H9V37H8zM12,36H13V37H12zM13,36H14V37H13zM14,36H15V37H14zM15,36H16V37H15zM16,36H17V37H16zM19,36H20V37H19zM20,36H21V37H20zM22,36H23V37H22zM24,36H25V37H24zM25,36H26V37H25zM26,36H27V37H26zM27,36H28V37H27zM28,36H29V37H28zM29,36H30V37H29zM30,36H31V37H30zM32,36H33V37H32zM37,36H38V37H37zM2,37H3V38H2zM8,37H9V38H8zM11,37H12V38H11zM12,37H13V38H12zM16,37H17V38H16zM17,37H18V38H17zM20,37H21V38H20zM23,37H24V38H23zM24,37H25V38H24zM25,37H26V38H25zM29,37H30V38H29zM33,37H34V38H33zM34,37H35V38H34zM36,37H37V38H36zM37,37H38V38H37zM2,38H3V39H2zM3,38H4V39H3zM4,38H5V39H4zM5,38H6V39H5zM6,38H7V39H6zM7,38H8V39H7zM8,38H9V39H8zM11,38H12V39H11zM13,38H14V39H13zM14,38H15V39H14zM16,38H17V39H16zM17,38H18V39H17zM18,38H19V39H18zM24,38H25V39H24zM29,38H30V39H29zM31,38H32V39H31zM35,38H36V39H35zM36,38H37V39H36zM37,38H38V39H37zM38,38H39V39H38z" id="qr-path" fill="#000000" fill-opacity="1" fill-rule="nonzero" stroke="none"/></svg>